<?xml version="1.0" encoding="iso-8859-1"?>
<!-- Generator: Adobe Illustrator 17.1.0, SVG Export Plug-In . SVG Version: 6.00 Build 0)  -->
<!DOCTYPE svg PUBLIC "-//W3C//DTD SVG 1.1//EN" "http://www.w3.org/Graphics/SVG/1.1/DTD/svg11.dtd">
<svg xmlns="http://www.w3.org/2000/svg" xmlns:xlink="http://www.w3.org/1999/xlink" version="1.1" id="Capa_1" x="0px" y="0px" viewBox="0 0 298 298" style="enable-background:new 0 0 298 298;" xml:space="preserve" width="512px" height="512px">
<path d="M288.805,121.147c-0.964-0.887-2.014-1.75-3.438-2.584c-16.444-9.605-50.56-29.516-58.944-34.271l-1.315-0.76  c-6.776-3.82-14.439-8.151-21.993-8.151c-6.39,0-11.634,2.988-15.607,8.884c-8.509,12.652-11.139,20.225-8.805,25.319  c0.704,1.538,2.532,4.296,6.82,4.811c0.662,0.082,1.342,0.225,2.017,0.225c0.001,0,0.001,0,0.002,0c4.026,0,7.53-1.559,10.622-2.845  c2.554-1.063,4.967-2.117,7.232-2.117c0.413,0,0.809-0.216,1.2-0.153c2.918,0.475,9.407,4.115,16.768,9.115H75.286  c7.364-5,13.859-8.665,16.777-9.139c2.573-0.418,5.404,0.827,8.413,2.078c3.098,1.288,6.608,2.804,10.646,2.804  c0.676,0,1.355-0.014,2.002-0.094c4.296-0.518,6.116-3.156,6.819-4.692c1.645-3.593,1.883-9.403-8.826-25.326  c-3.972-5.882-9.224-8.861-15.612-8.861c-7.575,0-15.27,4.348-22.058,8.183l-1.298,0.733c-7.958,4.525-41.284,23.902-59.016,34.26  c-1.435,0.84-2.691,1.711-3.659,2.606C3.875,124.137,0,129.928,0,136.574v69.438c0,9.928,11.291,16.608,21.311,16.608h104.076  c6.864,0,11.802-6.568,16.668-14.019c1.616-2.474,4.337-3.891,7.278-3.891c2.946,0,5.684,1.394,7.309,3.857  c4.86,7.452,9.792,14.052,16.646,14.052h104.068c10.021,0,20.645-6.681,20.645-16.608v-69.438  C298,129.909,294.434,124.105,288.805,121.147z M269,161.585v18.777c0,7.582-6.329,13.257-14.272,13.257H196.5  c-7.959,0-14.5-5.675-14.5-13.257v-18.777c0-7.578,6.541-13.966,14.5-13.966h58.228C262.671,147.62,269,154.007,269,161.585z   M29,161.585c0-7.578,6.998-13.966,14.946-13.966h58.246c7.948,0,13.808,6.388,13.808,13.966v18.777  c0,7.582-5.859,13.257-13.808,13.257H43.946c-7.948,0-14.946-5.675-14.946-13.257V161.585z" fill="#FFFFFF"/>
<g>
</g>
<g>
</g>
<g>
</g>
<g>
</g>
<g>
</g>
<g>
</g>
<g>
</g>
<g>
</g>
<g>
</g>
<g>
</g>
<g>
</g>
<g>
</g>
<g>
</g>
<g>
</g>
<g>
</g>
</svg>
