<?xml version="1.0" encoding="iso-8859-1"?>
<!-- Generator: Adobe Illustrator 19.0.0, SVG Export Plug-In . SVG Version: 6.00 Build 0)  -->
<svg xmlns="http://www.w3.org/2000/svg" xmlns:xlink="http://www.w3.org/1999/xlink" version="1.1" id="Capa_1" x="0px" y="0px" viewBox="0 0 460 460" style="enable-background:new 0 0 460 460;" xml:space="preserve" width="512px" height="512px">
<g id="XMLID_971_">
	<path id="XMLID_972_" d="M430,125v30H330v40h-30c0-44.183-35.817-80-80-80h-50v-10H85c-13.807,0-25,11.193-25,25s11.193,25,25,25   h85v-10h50c27.614,0,50,22.386,50,50H140v160h260V195h30v30h30V125H430z M185,255c-8.271,0-15-6.729-15-15s6.729-15,15-15   s15,6.729,15,15S193.271,255,185,255z M245,255c-8.271,0-15-6.729-15-15s6.729-15,15-15s15,6.729,15,15S253.271,255,245,255z" fill="#FFFFFF"/>
	<polygon id="XMLID_976_" points="0,355 110,325 110,225 0,195  " fill="#FFFFFF"/>
</g>
<g>
</g>
<g>
</g>
<g>
</g>
<g>
</g>
<g>
</g>
<g>
</g>
<g>
</g>
<g>
</g>
<g>
</g>
<g>
</g>
<g>
</g>
<g>
</g>
<g>
</g>
<g>
</g>
<g>
</g>
</svg>
